<?xml version="1.0" encoding="UTF-8" standalone="no" ?>
<!DOCTYPE svg PUBLIC "-//W3C//DTD SVG 1.1//EN" "http://www.w3.org/Graphics/SVG/1.1/DTD/svg11.dtd">
<svg xmlns="http://www.w3.org/2000/svg" xmlns:xlink="http://www.w3.org/1999/xlink" version="1.1" width="500" height="500" viewBox="0 0 500 500" xml:space="preserve">
<desc>Created with Fabric.js 4.6.0</desc>
<defs>
</defs>
<g transform="matrix(24.29 0 0 -24.67 250 250)" id="JDsW4G_EeX9ZxisA4psgy"  >
<path style="stroke: rgb(38,194,233); stroke-width: 0; stroke-dasharray: none; stroke-linecap: butt; stroke-dashoffset: 0; stroke-linejoin: miter; stroke-miterlimit: 4; fill: rgb(155,155,155); fill-rule: nonzero; opacity: 1;" vector-effect="non-scaling-stroke"  transform=" translate(0, 0)" d="M -10.01484 -5.7373 C -10.01484 -8.099720000000001 -8.06963 -10.01483 -5.67008 -10.01483 L 5.67008 -10.01483 L 5.67008 -10.01483 C 8.06962 -10.01483 10.01484 -8.09971 10.01484 -5.7373 L 10.01484 5.73731 L 10.01484 5.73731 C 10.01484 8.099730000000001 8.06963 10.01484 5.67008 10.01484 L -5.67008 10.01484 L -5.67008 10.01484 C -8.06962 10.01484 -10.01484 8.09972 -10.01484 5.73731 z" stroke-linecap="round" />
</g>
<g transform="matrix(1.47 0 0 1.51 248.87 249.61)" id="BmpE7x-Ty8p3iTVhHaw3d"  >
<radialGradient id="SVGID_1886" gradientUnits="userSpaceOnUse" gradientTransform="matrix(1 0 0 1 -155.33 -155.33)"  cx="307.95240202774323" cy="342.56223651351866" r="414.09322217120365" fx="307.95240202774323" fy="342.56223651351866">
<stop offset="0%" style="stop-color:#F5F5F5;stop-opacity: 1"/>
<stop offset="50%" style="stop-color:#7E7E7E;stop-opacity: 0"/>
<stop offset="100%" style="stop-color:#FFFFFF;stop-opacity: 1"/>
</radialGradient>
<path style="stroke: rgb(81,132,28); stroke-width: 0; stroke-dasharray: none; stroke-linecap: butt; stroke-dashoffset: 0; stroke-linejoin: miter; stroke-miterlimit: 4; fill: url(#SVGID_1886); fill-rule: nonzero; opacity: 1;" vector-effect="non-scaling-stroke"  transform=" translate(0, 0)" d="M -155.32837 -90.80003 C -155.32837 -126.43804 -125.82383000000002 -155.32836 -89.42813000000001 -155.32836 L 89.42811 -155.32836 L 89.42811 -155.32836 C 125.82381000000001 -155.32836 155.32835 -126.43804 155.32835 -90.80003 L 155.32835 90.80003999999998 L 155.32835 90.80003999999998 C 155.32835 126.43804999999998 125.82381000000001 155.32836999999998 89.42811 155.32836999999998 L -89.42813000000001 155.32836999999998 L -89.42813000000001 155.32836999999998 C -125.82383000000002 155.32836999999998 -155.32837 126.43804999999998 -155.32837 90.80003999999998 z" stroke-linecap="round" />
</g>
</svg>